<svg width="18" height="22" viewBox="0 0 18 22" fill="none" xmlns="http://www.w3.org/2000/svg">
<path d="M17.6536 3.13885V19.1468C17.6536 19.905 17.3524 20.6321 16.8163 21.1682C16.2802 21.7042 15.5531 22.0054 14.795 22.0054H5.64755C4.88941 22.0054 4.16232 21.7042 3.62624 21.1682C3.09015 20.6321 2.78898 19.905 2.78898 19.1468V18.0034C2.78898 17.8518 2.84922 17.7064 2.95643 17.5992C3.06365 17.4919 3.20907 17.4317 3.3607 17.4317C3.51232 17.4317 3.65774 17.4919 3.76496 17.5992C3.87218 17.7064 3.93241 17.8518 3.93241 18.0034V19.1468C3.93241 19.6017 4.11311 20.038 4.43476 20.3596C4.75642 20.6813 5.19267 20.862 5.64755 20.862H14.795C15.2499 20.862 15.6861 20.6813 16.0078 20.3596C16.3294 20.038 16.5101 19.6017 16.5101 19.1468V3.13885C16.5101 2.68396 16.3294 2.24771 16.0078 1.92606C15.6861 1.6044 15.2499 1.4237 14.795 1.4237H5.64755C5.19267 1.4237 4.75642 1.6044 4.43476 1.92606C4.11311 2.24771 3.93241 2.68396 3.93241 3.13885V4.28227C3.93241 4.4339 3.87218 4.57932 3.76496 4.68654C3.65774 4.79375 3.51232 4.85399 3.3607 4.85399C3.20907 4.85399 3.06365 4.79375 2.95643 4.68654C2.84922 4.57932 2.78898 4.4339 2.78898 4.28227V3.13885C2.78898 2.3807 3.09015 1.65362 3.62624 1.11753C4.16232 0.581443 4.88941 0.280273 5.64755 0.280273H14.795C15.5531 0.280273 16.2802 0.581443 16.8163 1.11753C17.3524 1.65362 17.6536 2.3807 17.6536 3.13885ZM6.79098 17.4317C6.86593 17.4331 6.94021 17.4175 7.00823 17.386C7.11264 17.3431 7.20201 17.2702 7.26509 17.1766C7.32817 17.083 7.36213 16.9729 7.3627 16.86V14.0014H13.6516C13.8032 14.0014 13.9486 13.9412 14.0558 13.834C14.163 13.7268 14.2233 13.5813 14.2233 13.4297V8.85599C14.2233 8.70436 14.163 8.55894 14.0558 8.45173C13.9486 8.34451 13.8032 8.28428 13.6516 8.28428H7.3627V5.4257C7.36213 5.31283 7.32817 5.20265 7.26509 5.10905C7.20201 5.01545 7.11264 4.94262 7.00823 4.89973C6.90504 4.85372 6.79006 4.84111 6.67935 4.86366C6.56865 4.88621 6.46775 4.9428 6.39078 5.0255L0.673639 10.7426C0.619393 10.7942 0.5762 10.8563 0.546686 10.9251C0.517173 10.9939 0.501953 11.068 0.501953 11.1428C0.501953 11.2177 0.517173 11.2918 0.546686 11.3606C0.5762 11.4294 0.619393 11.4915 0.673639 11.543L6.39078 17.2602C6.44179 17.3152 6.50376 17.3588 6.57269 17.3884C6.64163 17.4179 6.71599 17.4327 6.79098 17.4317Z" fill="#5B96E2"/>
</svg>
