<svg width="18" height="23" viewBox="0 0 18 23" fill="none" xmlns="http://www.w3.org/2000/svg">
<path d="M0.501717 3.5617V19.5697C0.501717 20.3278 0.802888 21.0549 1.33897 21.591C1.87506 22.1271 2.60215 22.4283 3.36029 22.4283H12.5077C13.2659 22.4283 13.9929 22.1271 14.529 21.591C15.0651 21.0549 15.3663 20.3278 15.3663 19.5697V18.4263C15.3663 18.2746 15.3061 18.1292 15.1988 18.022C15.0916 17.9148 14.9462 17.8546 14.7946 17.8546C14.6429 17.8546 14.4975 17.9148 14.3903 18.022C14.2831 18.1292 14.2229 18.2746 14.2229 18.4263V19.5697C14.2229 20.0246 14.0422 20.4608 13.7205 20.7825C13.3989 21.1041 12.9626 21.2848 12.5077 21.2848H3.36029C2.9054 21.2848 2.46915 21.1041 2.1475 20.7825C1.82585 20.4608 1.64515 20.0246 1.64515 19.5697V3.5617C1.64515 3.10681 1.82585 2.67056 2.1475 2.34891C2.46915 2.02726 2.9054 1.84655 3.36029 1.84655H12.5077C12.9626 1.84655 13.3989 2.02726 13.7205 2.34891C14.0422 2.67056 14.2229 3.10681 14.2229 3.5617V4.70513C14.2229 4.85675 14.2831 5.00217 14.3903 5.10939C14.4975 5.21661 14.6429 5.27684 14.7946 5.27684C14.9462 5.27684 15.0916 5.21661 15.1988 5.10939C15.3061 5.00217 15.3663 4.85675 15.3663 4.70513V3.5617C15.3663 2.80356 15.0651 2.07647 14.529 1.54038C13.9929 1.0043 13.2659 0.703125 12.5077 0.703125H3.36029C2.60215 0.703125 1.87506 1.0043 1.33897 1.54038C0.802888 2.07647 0.501717 2.80356 0.501717 3.5617ZM11.3643 17.8546C11.2893 17.856 11.2151 17.8403 11.147 17.8088C11.0426 17.7659 10.9533 17.6931 10.8902 17.5995C10.8271 17.5059 10.7931 17.3957 10.7926 17.2828V14.4243H4.50372C4.35209 14.4243 4.20667 14.364 4.09945 14.2568C3.99224 14.1496 3.932 14.0042 3.932 13.8526V9.27884C3.932 9.12721 3.99224 8.98179 4.09945 8.87458C4.20667 8.76736 4.35209 8.70713 4.50372 8.70713H10.7926V5.84855C10.7931 5.73568 10.8271 5.6255 10.8902 5.5319C10.9533 5.4383 11.0426 5.36547 11.147 5.32258C11.2502 5.27657 11.3652 5.26396 11.4759 5.28651C11.5866 5.30906 11.6875 5.36565 11.7645 5.44835L17.4816 11.1655C17.5359 11.2171 17.5791 11.2792 17.6086 11.348C17.6381 11.4168 17.6533 11.4908 17.6533 11.5657C17.6533 11.6406 17.6381 11.7146 17.6086 11.7834C17.5791 11.8522 17.5359 11.9143 17.4816 11.9659L11.7645 17.683C11.7135 17.738 11.6515 17.7817 11.5826 17.8112C11.5136 17.8408 11.4393 17.8555 11.3643 17.8546Z" fill="#EA625C"/>
</svg>
