<svg width="20" height="24" viewBox="0 0 20 24" fill="none" xmlns="http://www.w3.org/2000/svg">
<path d="M9.66682 23.0561C7.82096 23.0561 6.01655 22.5087 4.48178 21.4832C2.947 20.4577 1.75079 19.0001 1.04441 17.2948C0.338028 15.5894 0.153207 13.7129 0.513316 11.9025C0.873426 10.0921 1.76229 8.42918 3.06751 7.12396C4.37273 5.81874 6.03568 4.92987 7.84608 4.56976C9.65647 4.20966 11.533 4.39448 13.2383 5.10086C14.9437 5.80724 16.4013 7.00345 17.4268 8.53822C18.4523 10.073 18.9997 11.8774 18.9997 13.7233C18.9966 16.1975 18.0123 18.5696 16.2627 20.3192C14.5131 22.0687 12.1411 23.053 9.66682 23.0561ZM9.66682 6.72364C8.28243 6.72364 6.92912 7.13417 5.77804 7.90329C4.62696 8.67242 3.7298 9.76561 3.20001 11.0446C2.67023 12.3236 2.53161 13.731 2.80169 15.0888C3.07177 16.4466 3.73842 17.6938 4.71734 18.6728C5.69625 19.6517 6.94347 20.3183 8.30126 20.5884C9.65906 20.8585 11.0664 20.7199 12.3455 20.1901C13.6245 19.6603 14.7177 18.7631 15.4868 17.6121C16.2559 16.461 16.6664 15.1077 16.6664 13.7233C16.6643 11.8675 15.9261 10.0884 14.6139 8.77617C13.3017 7.46396 11.5226 6.72581 9.66682 6.72364ZM10.8334 14.8899H8.50022V9.05685H10.8334V14.8899ZM18.1749 7.54843L15.8417 5.21523L17.4912 3.56565L19.8244 5.89886L18.176 7.54727L18.1749 7.54843ZM13.1666 3.22383H6.16701V0.890625H13.1666V3.22383Z" fill="#A65EDE"/>
</svg>
